<svg width="340" height="309" viewBox="0 0 340 309" fill="none" xmlns="http://www.w3.org/2000/svg">
<g clip-path="url(#clip0_1437_5499)">
<path d="M172.309 76.888H47.802C39.7004 76.888 33.1328 83.471 33.1328 91.5917V214.801C33.1328 222.922 39.7004 229.505 47.802 229.505H172.309C180.41 229.505 186.978 222.922 186.978 214.801V91.5917C186.978 83.471 180.41 76.888 172.309 76.888Z" fill="#616161"/>
<path d="M73.9487 79.9117C63.924 79.9117 54.3098 83.9034 47.2213 91.0086C40.1327 98.1138 36.1504 107.751 36.1504 117.799V214.801C36.1504 216.335 36.4518 217.854 37.0374 219.271C37.623 220.688 38.4813 221.976 39.5633 223.06C40.6454 224.145 41.9299 225.005 43.3437 225.592C44.7574 226.179 46.2727 226.481 47.8029 226.481H127.266C142.303 226.481 156.723 220.494 167.356 209.836C177.988 199.179 183.962 184.724 183.962 169.652V91.5916C183.962 88.4939 182.734 85.5231 180.549 83.3327C178.363 81.1423 175.4 79.9117 172.309 79.9117H73.9487Z" fill="#F7F7F7"/>
<path d="M322.35 26.5165H11.4967C11.3513 26.5165 11.2118 26.4586 11.1089 26.3555C11.006 26.2524 10.9482 26.1125 10.9482 25.9667C10.9482 25.8209 11.006 25.6811 11.1089 25.578C11.2118 25.4749 11.3513 25.4169 11.4967 25.4169H322.35C322.496 25.4169 322.635 25.4749 322.738 25.578C322.841 25.6811 322.899 25.8209 322.899 25.9667C322.899 26.1125 322.841 26.2524 322.738 26.3555C322.635 26.4586 322.496 26.5165 322.35 26.5165Z" fill="#B0C0D0"/>
<path d="M27.0496 10.0115C29.6114 10.0115 31.6881 7.88353 31.6881 5.25853C31.6881 2.63352 29.6114 0.505539 27.0496 0.505539C24.4879 0.505539 22.4111 2.63352 22.4111 5.25853C22.4111 7.88353 24.4879 10.0115 27.0496 10.0115Z" fill="#B0C0D0"/>
<path d="M43.0731 10.0115C45.6348 10.0115 47.7115 7.88353 47.7115 5.25853C47.7115 2.63352 45.6348 0.505539 43.0731 0.505539C40.5113 0.505539 38.4346 2.63352 38.4346 5.25853C38.4346 7.88353 40.5113 10.0115 43.0731 10.0115Z" fill="#B0C0D0"/>
<path d="M59.0975 10.0115C61.6592 10.0115 63.7359 7.88353 63.7359 5.25853C63.7359 2.63352 61.6592 0.505539 59.0975 0.505539C56.5357 0.505539 54.459 2.63352 54.459 5.25853C54.459 7.88353 56.5357 10.0115 59.0975 10.0115Z" fill="#B0C0D0"/>
<path d="M77.3688 9.01518C77.2957 9.01528 77.2234 9.00069 77.156 8.97228C77.0887 8.94388 77.0277 8.90224 76.9767 8.84981L73.8469 5.64287C73.7466 5.54017 73.6904 5.40218 73.6904 5.25845C73.6904 5.11473 73.7466 4.97673 73.8469 4.87403L76.9767 1.66736C77.0269 1.61493 77.0869 1.57298 77.1534 1.54395C77.2198 1.51492 77.2913 1.49938 77.3638 1.49822C77.4363 1.49707 77.5083 1.51032 77.5756 1.53722C77.6429 1.56411 77.7043 1.60412 77.7561 1.65492C77.8079 1.70572 77.8491 1.76631 77.8775 1.83319C77.9058 1.90006 77.9206 1.9719 77.921 2.04455C77.9215 2.1172 77.9076 2.18922 77.8801 2.25644C77.8526 2.32367 77.8121 2.38476 77.7609 2.4362L75.0063 5.25845L77.7609 8.08096C77.8364 8.15833 77.8874 8.2563 77.9076 8.36261C77.9278 8.46892 77.9162 8.57884 77.8743 8.67859C77.8325 8.77834 77.7622 8.86348 77.6723 8.92336C77.5823 8.98323 77.4768 9.01517 77.3688 9.01518Z" fill="#B0C0D0"/>
<path d="M82.6284 9.01518C82.5204 9.01517 82.4149 8.98323 82.325 8.92335C82.235 8.86347 82.1647 8.77833 82.1229 8.67858C82.081 8.57883 82.0694 8.46891 82.0896 8.3626C82.1098 8.25629 82.1608 8.15833 82.2363 8.08096L84.9906 5.25845L82.2363 2.4362C82.1851 2.38476 82.1446 2.32366 82.1171 2.25644C82.0897 2.18921 82.0757 2.11719 82.0762 2.04454C82.0766 1.97189 82.0914 1.90006 82.1197 1.83318C82.1481 1.7663 82.1893 1.70571 82.2411 1.65491C82.2929 1.60411 82.3543 1.5641 82.4216 1.53721C82.489 1.51031 82.5609 1.49707 82.6334 1.49822C82.7059 1.49938 82.7774 1.51492 82.8438 1.54395C82.9103 1.57298 82.9703 1.61492 83.0205 1.66735L86.15 4.87402C86.2503 4.97672 86.3065 5.11473 86.3065 5.25845C86.3065 5.40217 86.2503 5.54017 86.15 5.64287L83.0205 8.8498C82.9695 8.90223 82.9085 8.94388 82.8412 8.97228C82.7738 9.00069 82.7015 9.01528 82.6284 9.01518Z" fill="#B0C0D0"/>
<path d="M294.63 1.05583H288.811C288.653 1.05578 288.497 1.0869 288.351 1.14739C288.205 1.20788 288.073 1.29657 287.961 1.40839C287.85 1.5202 287.761 1.65295 287.701 1.79905C287.64 1.94516 287.609 2.10175 287.609 2.25988V8.09867C287.609 8.2568 287.64 8.41339 287.701 8.55949C287.761 8.70559 287.85 8.83835 287.961 8.95017C288.073 9.06198 288.205 9.15067 288.351 9.21116C288.497 9.27165 288.653 9.30276 288.811 9.30271H294.63C294.949 9.30302 295.256 9.17644 295.482 8.95073C295.708 8.72502 295.836 8.4186 295.837 8.09867V2.25988C295.836 1.93995 295.708 1.63353 295.482 1.40782C295.256 1.18211 294.949 1.05552 294.63 1.05583Z" fill="#B0C0D0"/>
<path d="M280.369 1.05583H274.549C274.391 1.05578 274.235 1.0869 274.089 1.14739C273.943 1.20788 273.811 1.29657 273.699 1.40839C273.588 1.5202 273.499 1.65295 273.439 1.79905C273.379 1.94516 273.348 2.10175 273.348 2.25988V8.09867C273.348 8.2568 273.379 8.41339 273.439 8.55949C273.499 8.70559 273.588 8.83835 273.699 8.95017C273.811 9.06198 273.943 9.15067 274.089 9.21116C274.235 9.27165 274.391 9.30276 274.549 9.30271H280.369C280.688 9.30302 280.994 9.17644 281.22 8.95073C281.446 8.72502 281.574 8.4186 281.575 8.09867V2.25988C281.574 1.93995 281.446 1.63353 281.22 1.40782C280.994 1.18211 280.688 1.05552 280.369 1.05583Z" fill="#B0C0D0"/>
<path d="M308.069 1.33072H302.249C302.091 1.33067 301.935 1.36179 301.789 1.42228C301.644 1.48277 301.511 1.57146 301.4 1.68327C301.288 1.79509 301.2 1.92784 301.139 2.07394C301.079 2.22004 301.048 2.37663 301.048 2.53477V8.37355C301.048 8.53168 301.079 8.68828 301.139 8.83438C301.2 8.98048 301.288 9.11324 301.4 9.22505C301.511 9.33687 301.644 9.42556 301.789 9.48605C301.935 9.54654 302.091 9.57765 302.249 9.5776H308.069C308.388 9.57791 308.694 9.45133 308.92 9.22562C309.147 8.9999 309.274 8.69348 309.275 8.37355V2.53477C309.274 2.21483 309.147 1.90841 308.92 1.6827C308.694 1.45699 308.388 1.33041 308.069 1.33072Z" fill="#B0C0D0"/>
<path d="M191.36 9.89625H153.514C152.204 9.89625 150.949 9.37494 150.023 8.44699C149.097 7.51903 148.577 6.26045 148.577 4.94813C148.577 3.6358 149.097 2.37723 150.023 1.44928C150.949 0.521324 152.204 0 153.514 0H191.36C192.67 0 193.925 0.521324 194.851 1.44928C195.777 2.37723 196.297 3.6358 196.297 4.94813C196.297 6.26045 195.777 7.51903 194.851 8.44699C193.925 9.37494 192.67 9.89625 191.36 9.89625Z" fill="#B0C0D0"/>
<path d="M129.045 174.504H44.5793C44.0962 174.504 43.6329 174.311 43.2913 173.969C42.9497 173.627 42.7578 173.162 42.7578 172.678C42.7578 172.194 42.9497 171.729 43.2913 171.387C43.6329 171.045 44.0962 170.852 44.5793 170.852H129.045C129.528 170.852 129.991 171.045 130.333 171.387C130.674 171.729 130.866 172.194 130.866 172.678C130.866 173.162 130.674 173.627 130.333 173.969C129.991 174.311 129.528 174.504 129.045 174.504Z" fill="#616161"/>
<path d="M129.045 122.426H1.82174C1.58227 122.426 1.34507 122.38 1.12371 122.288C0.902346 122.196 0.701174 122.062 0.531697 121.892C0.36222 121.723 0.227774 121.521 0.136037 121.3C0.0443006 121.078 -0.00292969 120.84 -0.00292969 120.6C-0.00292969 120.36 0.0443006 120.123 0.136037 119.901C0.227774 119.679 0.36222 119.478 0.531697 119.308C0.701174 119.139 0.902346 119.004 1.12371 118.913C1.34507 118.821 1.58227 118.774 1.82174 118.774H129.045C129.528 118.775 129.99 118.968 130.331 119.31C130.672 119.653 130.864 120.117 130.864 120.6C130.864 121.084 130.672 121.548 130.331 121.89C129.99 122.232 129.528 122.425 129.045 122.426Z" fill="#616161"/>
<path d="M129.048 135.464H1.81877C1.33585 135.464 0.873006 135.657 0.531826 136C0.190646 136.342 -0.000976562 136.807 -0.000976562 137.291C-0.000976562 137.775 0.190646 138.239 0.531826 138.582C0.873006 138.924 1.33585 139.117 1.81877 139.118H129.048C129.531 139.117 129.993 138.924 130.335 138.582C130.676 138.239 130.867 137.775 130.867 137.291C130.867 136.807 130.676 136.342 130.335 136C129.993 135.657 129.531 135.464 129.048 135.464Z" fill="#616161"/>
<path d="M129.045 155.81H1.8215C1.33841 155.81 0.875104 155.617 0.533505 155.275C0.191907 154.933 0 154.468 0 153.984C0 153.5 0.191907 153.035 0.533505 152.693C0.875104 152.351 1.33841 152.158 1.8215 152.158H129.045C129.528 152.158 129.991 152.351 130.333 152.693C130.675 153.035 130.867 153.5 130.867 153.984C130.867 154.468 130.675 154.933 130.333 155.275C129.991 155.617 129.528 155.81 129.045 155.81Z" fill="#616161"/>
<path d="M236.176 301.679L230.335 301.678L227.557 279.096L236.177 279.097L236.176 301.679Z" fill="#A0616A"/>
<path d="M236.381 307.786L218.42 307.785V307.558C218.42 305.699 219.157 303.917 220.468 302.603C221.779 301.289 223.557 300.551 225.411 300.55L228.692 298.056L234.813 300.551L236.381 300.551L236.381 307.786Z" fill="#2F2E41"/>
<path d="M294.944 301.679L289.104 301.678L286.325 279.096L294.946 279.097L294.944 301.679Z" fill="#A0616A"/>
<path d="M295.15 307.786L277.188 307.785V307.558C277.189 305.699 277.925 303.917 279.236 302.603C280.547 301.289 282.325 300.551 284.179 300.55L287.461 298.056L293.582 300.551L295.15 300.551L295.15 307.786Z" fill="#2F2E41"/>
<path d="M240.941 171.946C240.941 171.946 237.105 176.027 236.943 178.674C236.781 181.322 238.78 176.513 236.781 181.322C234.782 186.131 234.782 182.925 234.782 186.13C234.782 189.336 230.546 192.467 230.546 192.467L223.562 221.272L227.586 288.716H236.381C244.555 263.742 248.358 244.457 243.977 235.821L256.191 208.609C256.191 208.609 279.272 280.999 280.214 281.852C281.157 282.706 281.157 281.503 281.157 282.705C281.157 283.908 279.958 282.706 281.157 283.908L286.754 289.518L295.15 288.716C295.15 288.716 296.273 236.305 286.916 227.247C286.916 227.247 289.077 199.197 286.916 199.276C284.755 199.354 284.755 202.961 284.755 199.354C284.755 195.748 287.316 194.786 287.316 194.786L280.12 169.453L240.941 171.946Z" fill="#2F2E41"/>
<path d="M286.26 116.108L278.131 150.222L280.051 162.912L282.354 178.113L274.39 177.597L262.065 176.794L239.182 175.309L237.18 107.987L247.678 96.9915L249.554 91.6531L264.731 91.5596L268.362 97.9702L277.698 100.631C278.898 101.394 280.025 102.267 281.065 103.237C283.369 105.376 285.41 108.092 286.364 110.874C286.652 111.685 286.834 112.529 286.907 113.386L286.26 116.108Z" fill="#B0C0D0"/>
<path d="M215.613 202.666C216.225 202.327 216.756 201.859 217.169 201.294C217.583 200.729 217.869 200.082 218.008 199.395C218.147 198.709 218.135 198 217.974 197.319C217.813 196.637 217.506 195.999 217.075 195.448L228.652 174.322L223.61 169.675L210.042 194.868C209.171 195.665 208.622 196.754 208.498 197.93C208.375 199.105 208.686 200.286 209.372 201.247C210.059 202.208 211.074 202.883 212.224 203.145C213.374 203.406 214.58 203.236 215.613 202.666Z" fill="#B0C0D0"/>
<path d="M243.851 103.872L241.152 152.327L228.151 182.779L219.689 194.027L220.651 188.93L214.818 186.004L214.271 185.732L225.469 142.173L226.5 125.246C226.678 122.333 227.457 119.489 228.788 116.894C230.119 114.298 231.972 112.008 234.232 110.167L240.708 104.893L243.851 103.872Z" fill="#B0C0D0"/>
<path d="M215.613 202.666C216.225 202.327 216.756 201.859 217.169 201.294C217.583 200.729 217.869 200.082 218.008 199.395C218.147 198.709 218.135 198 217.974 197.319C217.813 196.637 217.506 195.999 217.075 195.448L228.652 174.322L223.61 169.675L210.042 194.868C209.171 195.665 208.622 196.754 208.498 197.93C208.375 199.105 208.686 200.286 209.372 201.247C210.059 202.208 211.074 202.883 212.224 203.145C213.374 203.406 214.58 203.236 215.613 202.666Z" fill="#A0616A"/>
<path d="M243.851 103.872L241.152 152.327L228.151 182.779L219.689 194.027L220.651 188.93L214.818 186.004L214.271 185.732L225.469 142.173L226.5 125.246C226.678 122.333 227.457 119.489 228.788 116.894C230.119 114.298 231.972 112.008 234.232 110.167L240.708 104.893L243.851 103.872Z" fill="#B0C0D0"/>
<path d="M256.381 105.542H131.874C123.773 105.542 117.205 112.125 117.205 120.246V184.628C117.205 192.748 123.773 199.331 131.874 199.331H256.381C264.482 199.331 271.05 192.748 271.05 184.628V120.246C271.05 112.125 264.482 105.542 256.381 105.542Z" fill="#F7F7F7"/>
<path d="M256.382 199.881H131.875C127.84 199.877 123.972 198.268 121.119 195.408C118.267 192.549 116.662 188.672 116.657 184.628V120.246C116.662 116.202 118.267 112.324 121.119 109.465C123.972 106.605 127.84 104.997 131.875 104.992H256.382C260.416 104.997 264.284 106.605 267.137 109.465C269.99 112.325 271.594 116.202 271.599 120.246V184.628C271.594 188.672 269.99 192.549 267.137 195.408C264.284 198.268 260.416 199.877 256.382 199.881ZM131.875 106.092C128.13 106.092 124.538 107.583 121.89 110.237C119.242 112.892 117.754 116.492 117.754 120.246V144.31C117.754 158.757 123.48 172.612 133.671 182.827C143.863 193.043 157.685 198.782 172.098 198.782H256.382C260.127 198.782 263.718 197.29 266.366 194.636C269.014 191.982 270.502 188.382 270.502 184.628V120.246C270.502 118.387 270.137 116.546 269.427 114.829C268.717 113.112 267.677 111.552 266.366 110.237C265.055 108.923 263.498 107.88 261.785 107.169C260.072 106.458 258.236 106.092 256.381 106.092L131.875 106.092Z" fill="#3F3D56"/>
<path d="M164.782 173.879H135.712C134.651 173.879 133.792 174.74 133.792 175.803C133.792 176.866 134.651 177.727 135.712 177.727H164.782C165.843 177.727 166.702 176.866 166.702 175.803C166.702 174.74 165.843 173.879 164.782 173.879Z" fill="#002952"/>
<path d="M252.543 168.656H232.249C231.189 168.656 230.329 169.517 230.329 170.58V181.026C230.329 182.089 231.189 182.95 232.249 182.95H252.543C253.604 182.95 254.463 182.089 254.463 181.026V170.58C254.463 169.517 253.604 168.656 252.543 168.656Z" fill="#002952"/>
<path d="M143.665 141.716C149.118 141.716 153.538 137.285 153.538 131.82C153.538 126.354 149.118 121.923 143.665 121.923C138.212 121.923 133.792 126.354 133.792 131.82C133.792 137.285 138.212 141.716 143.665 141.716Z" fill="#002952"/>
<path d="M256.589 88.7262C263.435 88.7262 268.986 83.1628 268.986 76.3C268.986 69.4372 263.435 63.8738 256.589 63.8738C249.742 63.8738 244.191 69.4372 244.191 76.3C244.191 83.1628 249.742 88.7262 256.589 88.7262Z" fill="#A0616A"/>
<path d="M266.759 82.7228C266.856 83.4651 265.516 83.5436 265.214 82.8589C264.912 82.1742 265.303 81.3982 265.684 80.7542L266.569 79.2595C266.735 78.978 266.832 78.6607 266.852 78.334C266.871 78.0073 266.812 77.6807 266.68 77.3814C266.548 77.0821 266.347 76.8188 266.093 76.6133C265.838 76.4079 265.539 76.2664 265.219 76.2004C266.028 74.3762 265.15 72.0993 263.538 70.9272C261.926 69.7551 259.527 71.9482 257.571 72.3243C255.615 72.7004 254.049 71.1998 252.266 72.0894L253.337 69.6141L247.407 72.1748L248.785 69.3903C247.288 69.472 246.651 71.2989 246.353 72.7711C246.035 74.3396 245.202 76.3004 243.5 75.9755C243.097 75.8853 242.727 75.6828 242.433 75.3912C242.14 75.0996 241.934 74.7307 241.84 74.3272C240.526 69.2465 244.343 63.6922 249.402 62.8011C249.943 61.3038 250.948 60.0195 252.27 59.1363C253.592 58.2532 255.162 57.8176 256.749 57.8933C258.336 57.9691 259.857 58.5522 261.089 59.5573C262.322 60.5623 263.201 61.9365 263.598 63.4786L265.256 61.4429L265.58 64.3273C266.772 64.2003 267.898 65.0438 268.477 66.0958C269.057 67.1478 268.783 68.5059 269.339 69.5703C271.832 74.3409 271.007 79.7116 267.158 83.3704" fill="#2F2E41"/>
<path d="M310.238 299.47C310.493 299.482 310.746 299.415 310.961 299.278C311.177 299.141 311.346 298.941 311.444 298.705C311.542 298.469 311.566 298.209 311.512 297.959C311.458 297.709 311.328 297.482 311.141 297.308L311.055 296.968C311.067 296.941 311.078 296.914 311.089 296.887C311.346 296.278 311.776 295.76 312.326 295.396C312.876 295.033 313.521 294.84 314.18 294.842C314.839 294.845 315.482 295.042 316.029 295.41C316.576 295.778 317.003 296.299 317.255 296.909C318.264 299.344 319.548 301.783 319.864 304.357C320.003 305.495 319.944 306.648 319.69 307.766C322.059 302.587 323.289 296.958 323.297 291.261C323.297 289.831 323.218 288.403 323.059 286.982C322.928 285.817 322.746 284.661 322.514 283.512C321.244 277.283 318.518 271.443 314.56 266.475C312.645 265.427 311.095 263.816 310.121 261.858C309.768 261.155 309.519 260.403 309.381 259.628C309.597 259.657 310.196 256.358 310.033 256.155C310.334 255.697 310.873 255.469 311.202 255.022C312.838 252.799 315.091 253.188 316.268 256.208C318.781 257.48 318.806 259.589 317.263 261.617C316.282 262.907 316.147 264.653 315.287 266.034C315.375 266.148 315.467 266.258 315.556 266.372C317.175 268.458 318.586 270.699 319.769 273.062C319.481 270.415 319.825 267.737 320.771 265.249C321.73 262.931 323.527 260.978 325.11 258.974C325.528 258.435 326.097 258.033 326.743 257.818C327.39 257.604 328.085 257.586 328.742 257.767C329.398 257.949 329.986 258.321 330.432 258.838C330.877 259.354 331.16 259.991 331.244 260.669C331.247 260.698 331.25 260.728 331.254 260.757C331.018 260.89 330.788 261.031 330.563 261.181C330.28 261.37 330.061 261.641 329.934 261.957C329.808 262.274 329.779 262.621 329.853 262.954C329.926 263.287 330.099 263.59 330.347 263.823C330.595 264.056 330.908 264.209 331.244 264.26L331.278 264.266C331.195 265.115 331.047 265.957 330.836 266.783C332.866 274.654 328.482 277.521 322.223 277.65C322.085 277.721 321.95 277.792 321.812 277.859C323.001 281.235 323.746 284.752 324.03 288.32C324.191 290.426 324.181 292.541 324.002 294.645L324.012 294.57C324.466 292.231 325.711 290.12 327.537 288.594C330.25 286.36 334.082 285.538 337.009 283.742C337.32 283.542 337.682 283.435 338.051 283.434C338.421 283.434 338.783 283.539 339.095 283.737C339.407 283.936 339.656 284.22 339.812 284.556C339.968 284.891 340.026 285.265 339.977 285.632L339.965 285.71C339.529 285.889 339.104 286.094 338.693 286.325C338.458 286.458 338.228 286.599 338.003 286.748C337.72 286.938 337.501 287.208 337.374 287.525C337.247 287.841 337.219 288.188 337.292 288.521C337.366 288.854 337.538 289.157 337.786 289.39C338.035 289.623 338.347 289.776 338.684 289.828L338.718 289.833C338.743 289.837 338.764 289.84 338.789 289.844C338.043 291.628 336.997 293.27 335.696 294.698C334.427 301.569 328.974 302.221 323.141 300.22H323.137C322.497 303.008 321.57 305.721 320.37 308.316H310.486C310.451 308.206 310.419 308.093 310.387 307.983C311.302 308.04 312.22 307.985 313.122 307.819C312.389 306.917 311.655 306.008 310.922 305.106C310.906 305.089 310.89 305.072 310.876 305.053C310.504 304.591 310.128 304.133 309.756 303.672L309.756 303.671C309.736 302.256 309.899 300.844 310.238 299.47Z" fill="#616161"/>
<path d="M157.452 308.346C157.452 308.432 157.469 308.517 157.501 308.596C157.534 308.676 157.582 308.748 157.643 308.809C157.703 308.87 157.775 308.918 157.855 308.951C157.934 308.984 158.019 309 158.105 309H339.27C339.443 309 339.609 308.931 339.732 308.808C339.854 308.686 339.923 308.519 339.923 308.346C339.923 308.172 339.854 308.006 339.732 307.883C339.609 307.76 339.443 307.692 339.27 307.692H158.105C158.019 307.691 157.934 307.708 157.855 307.741C157.775 307.774 157.703 307.822 157.643 307.883C157.582 307.943 157.534 308.016 157.501 308.095C157.469 308.175 157.452 308.26 157.452 308.346Z" fill="#616161"/>
<path d="M261.868 199.725C262.467 199.365 262.981 198.878 263.374 198.299C263.768 197.72 264.031 197.062 264.145 196.371C264.26 195.68 264.223 194.973 264.038 194.297C263.853 193.622 263.524 192.995 263.073 192.46L273.894 170.934L268.69 166.471L256.024 192.131C255.182 192.958 254.671 194.066 254.59 195.246C254.508 196.425 254.861 197.593 255.581 198.529C256.301 199.466 257.339 200.104 258.498 200.325C259.657 200.545 260.856 200.332 261.868 199.725Z" fill="#A0616A"/>
<path d="M286.364 110.874L286.907 113.386L285.607 148.507L280.05 162.912L274.39 177.597L273.693 179.405L265.636 190.945L266.415 185.816L260.48 183.1L259.926 182.853L262.065 176.794L266.985 162.873L269.113 156.847L269.574 138.919L270.002 121.969C270.076 119.051 270.754 116.181 271.991 113.54C273.229 110.899 275 108.544 277.193 106.624L281.065 103.237C283.369 105.376 285.409 108.092 286.364 110.874Z" fill="#B0C0D0"/>
<path d="M156.912 198.611L131.199 198.061C128 198.056 124.934 196.78 122.673 194.513C120.412 192.245 119.14 189.172 119.136 185.966L118.039 159.019C121.196 180.988 133.329 194.923 156.912 198.611Z" fill="#002952"/>
</g>
<defs>
<clipPath id="clip0_1437_5499">
<rect width="340" height="309" fill="white"/>
</clipPath>
</defs>
</svg>
