<svg width="468" height="448" viewBox="0 0 468 448" fill="none" xmlns="http://www.w3.org/2000/svg">
<g clip-path="url(#clip0_893_2135)">
<path d="M421.007 434.023C422.775 434.133 423.752 431.937 422.414 430.657L422.281 430.128C422.298 430.085 422.316 430.043 422.334 430.001C424.122 425.737 430.181 425.767 431.954 430.036C433.527 433.826 435.531 437.622 436.024 441.629C436.245 443.397 436.146 445.199 435.753 446.935C439.44 438.881 441.38 430.088 441.38 421.244C441.38 419.022 441.258 416.8 441.01 414.583C440.805 412.77 440.523 410.968 440.158 409.183C438.185 399.532 433.912 390.34 427.749 382.663C424.787 381.043 422.316 378.512 420.824 375.477C420.288 374.383 419.867 373.205 419.668 372.006C420.006 372.05 420.94 366.915 420.685 366.6C421.155 365.887 421.996 365.533 422.51 364.837C425.062 361.377 428.578 361.981 430.414 366.683C434.335 368.662 434.373 371.945 431.967 375.101C430.436 377.11 430.226 379.827 428.883 381.977C429.021 382.154 429.164 382.326 429.303 382.503C431.837 385.753 434.028 389.246 435.876 392.916C435.354 388.837 436.125 383.923 437.439 380.756C438.935 377.147 441.739 374.107 444.208 370.987C447.175 367.24 453.257 368.875 453.78 373.626C453.785 373.672 453.79 373.718 453.794 373.764C453.428 373.971 453.068 374.191 452.717 374.423C450.715 375.747 451.407 378.85 453.779 379.216L453.833 379.225C453.7 380.546 453.474 381.856 453.142 383.144C456.31 395.395 449.471 399.857 439.705 400.057C439.49 400.168 439.279 400.278 439.064 400.383C440.053 403.169 440.844 406.027 441.43 408.923C441.955 411.482 442.32 414.069 442.524 416.667C442.778 419.945 442.756 423.239 442.48 426.511L442.496 426.395C443.198 422.791 445.155 419.425 447.996 417.093C452.229 413.616 458.208 412.336 462.774 409.541C464.972 408.196 467.788 409.934 467.405 412.482L467.386 412.604C466.706 412.881 466.043 413.201 465.402 413.561C465.035 413.768 464.676 413.987 464.325 414.22C462.323 415.544 463.014 418.647 465.387 419.013L465.44 419.022C465.479 419.027 465.512 419.033 465.551 419.038C464.385 421.807 462.76 424.378 460.726 426.594C458.745 437.289 450.237 438.304 441.137 435.189H441.131C440.136 439.523 438.683 443.757 436.814 447.792H421.393C421.338 447.62 421.288 447.443 421.238 447.272C422.664 447.36 424.101 447.278 425.505 447.018C424.361 445.614 423.217 444.199 422.073 442.795C422.045 442.767 422.023 442.74 422.001 442.712C421.421 441.993 420.835 441.28 420.254 440.562L420.254 440.561C420.218 438.355 420.483 436.156 421.007 434.023Z" fill="#48D60C"/>
<path d="M137.272 446.982C137.272 447.546 137.726 448 138.291 448H466.302C466.867 448 467.32 447.546 467.32 446.982C467.32 446.417 466.867 445.963 466.302 445.963H138.291C137.726 445.963 137.272 446.417 137.272 446.982Z" fill="#CCCCCC"/>
<path d="M187.045 447.566H36.065C17.6555 447.566 2.67822 432.589 2.67822 414.179V89.7118C2.67822 71.3024 17.6555 56.3251 36.065 56.3251H187.045C205.454 56.3251 220.432 71.3024 220.432 89.7118V414.179C220.432 432.589 205.454 447.566 187.045 447.566Z" fill="#757575"/>
<path d="M220.431 175.675C219.652 175.675 219.019 176.308 219.019 177.087V222.285C219.019 223.064 219.652 223.697 220.431 223.697C221.21 223.697 221.844 223.064 221.844 222.285V177.087C221.844 176.308 221.21 175.675 220.431 175.675Z" fill="#3F3D56"/>
<path d="M217.254 89.712V414.173C217.254 430.197 204.782 443.305 189.013 444.322H189.006C188.773 444.336 188.54 444.35 188.299 444.357C187.883 444.378 187.466 444.385 187.042 444.385C187.042 444.385 185.489 444.272 182.65 444.06C179.782 443.848 175.609 443.531 170.404 443.114C168.843 442.994 167.198 442.86 165.461 442.719C162 442.436 158.201 442.125 154.126 441.772C152.502 441.638 150.821 441.49 149.105 441.341C140.334 440.586 130.51 439.703 120.15 438.7C118.399 438.538 116.633 438.368 114.853 438.192C114.387 438.142 113.914 438.1 113.441 438.05C106.054 437.323 5.85645 417.959 5.85645 414.173V89.712C5.85645 73.0243 19.3804 59.5003 36.0682 59.5003H54.1048C56.9861 59.5003 59.3025 61.7461 59.5497 64.6204C59.5708 64.8111 59.592 65.0017 59.6273 65.1924C60.1499 68.0808 62.7982 70.0935 65.736 70.0935H157.374C160.312 70.0935 162.961 68.0808 163.483 65.1924C163.518 65.0017 163.54 64.8111 163.561 64.6204C163.808 61.7461 166.124 59.5003 169.006 59.5003H187.042C203.73 59.5003 217.254 73.0243 217.254 89.712Z" fill="white"/>
<path d="M1.97199 141.777C1.19302 141.777 0.55957 142.41 0.55957 143.189V154.488C0.55957 155.267 1.19303 155.901 1.97199 155.901C2.75095 155.901 3.38441 155.267 3.38441 154.488V143.189C3.38441 142.41 2.75095 141.777 1.97199 141.777Z" fill="#3F3D56"/>
<path d="M1.97199 175.675C1.19302 175.675 0.55957 176.308 0.55957 177.087V198.98C0.55957 199.759 1.19303 200.392 1.97199 200.392C2.75095 200.392 3.38441 199.759 3.38441 198.98V177.087C3.38441 176.308 2.75095 175.675 1.97199 175.675Z" fill="#3F3D56"/>
<path d="M1.97199 206.748C1.19302 206.748 0.55957 207.382 0.55957 208.16V230.053C0.55957 230.832 1.19303 231.465 1.97199 231.465C2.75095 231.465 3.38441 230.832 3.38441 230.053V208.16C3.38441 207.382 2.75095 206.748 1.97199 206.748Z" fill="#3F3D56"/>
<path d="M53.6127 64.4466H26.6014C26.4548 64.4466 26.3359 64.5654 26.3359 64.712V67.7122C26.3359 67.8588 26.4548 67.9776 26.6014 67.9776H53.6127C53.7593 67.9776 53.8782 67.8588 53.8782 67.7122V64.712C53.8782 64.5654 53.7593 64.4466 53.6127 64.4466Z" fill="#E6E6E6"/>
<path d="M173.468 67.9776C175.029 67.9776 176.293 66.7129 176.293 65.1528C176.293 63.5927 175.029 62.3279 173.468 62.3279C171.908 62.3279 170.644 63.5927 170.644 65.1528C170.644 66.7129 171.908 67.9776 173.468 67.9776Z" fill="#E6E6E6"/>
<path d="M181.237 67.9776C182.797 67.9776 184.062 66.7129 184.062 65.1528C184.062 63.5927 182.797 62.3279 181.237 62.3279C179.677 62.3279 178.412 63.5927 178.412 65.1528C178.412 66.7129 179.677 67.9776 181.237 67.9776Z" fill="#E6E6E6"/>
<path d="M189.006 67.9776C190.566 67.9776 191.83 66.7129 191.83 65.1528C191.83 63.5927 190.566 62.3279 189.006 62.3279C187.445 62.3279 186.181 63.5927 186.181 65.1528C186.181 66.7129 187.445 67.9776 189.006 67.9776Z" fill="#E6E6E6"/>
<path d="M171.106 255.463H51.2971C49.4097 255.463 47.874 253.927 47.874 252.04C47.874 250.152 49.4097 248.617 51.2971 248.617H171.106C172.993 248.617 174.529 250.152 174.529 252.04C174.529 253.927 172.993 255.463 171.106 255.463Z" fill="#E6E6E6"/>
<path d="M111.631 388.109C139.044 388.109 161.266 365.886 161.266 338.473C161.266 311.061 139.044 288.838 111.631 288.838C84.2185 288.838 61.9961 311.061 61.9961 338.473C61.9961 365.886 84.2185 388.109 111.631 388.109Z" fill="#B0C0D0"/>
<path d="M119.52 322.267C115.331 322.439 110.595 322.727 107.499 325.941C104.809 328.733 104.22 332.877 106.948 335.859C109.682 338.848 113.935 339.252 117.087 341.584C120.789 344.322 120.247 349.739 116.664 352.334C112.44 355.394 106.986 353.967 103.125 351.056C102.135 350.31 101.174 351.981 102.153 352.718C105.613 355.327 110.127 356.779 114.405 355.531C118.266 354.404 121.259 351.256 121.563 347.162C121.709 345.207 121.153 343.224 119.938 341.681C118.655 340.052 116.807 339.05 114.939 338.234C111.724 336.83 106.188 335.014 107.122 330.443C108.256 324.903 114.999 324.378 119.52 324.193C120.755 324.142 120.761 322.216 119.52 322.267Z" fill="white"/>
<path d="M111.749 319.646L111.564 361.916C111.559 363.155 113.485 363.157 113.49 361.916L113.675 319.646C113.68 318.407 111.754 318.406 111.749 319.646Z" fill="white"/>
<path d="M374.607 0H129.889C120.912 0 113.612 7.29976 113.612 16.2769V183.975C113.612 192.952 120.912 200.252 129.889 200.252H374.607C383.584 200.252 390.884 192.952 390.884 183.975V16.2769C390.884 7.29976 383.584 0 374.607 0Z" fill="white"/>
<path d="M251.123 99.7116C266.247 99.7116 278.508 87.4509 278.508 72.3267C278.508 57.2024 266.247 44.9418 251.123 44.9418C235.999 44.9418 223.738 57.2024 223.738 72.3267C223.738 87.4509 235.999 99.7116 251.123 99.7116Z" fill="#164D00"/>
<path d="M256.318 60.1063C252.929 60.246 249.112 60.4608 246.548 62.9835C244.424 65.0731 243.681 68.3262 245.633 70.7865C247.688 73.377 251.106 73.8685 253.788 75.5239C255.456 76.5528 256.561 78.1114 256.596 80.1145C256.63 81.9899 255.764 83.742 254.318 84.9173C250.768 87.8011 245.927 86.6073 242.568 84.0853C241.908 83.5891 241.267 84.7031 241.921 85.1937C244.702 87.2825 248.283 88.4956 251.744 87.5969C254.93 86.7697 257.496 84.2636 257.841 80.9149C258.205 77.3854 255.887 74.9822 252.882 73.6035C250.136 72.3433 245.318 71.0006 245.772 67.0855C246.35 62.1078 252.443 61.5496 256.318 61.3899C257.141 61.356 257.146 60.0722 256.318 60.1063Z" fill="white"/>
<path d="M250.427 57.7785L250.273 93.0007C250.269 93.8268 251.553 93.8279 251.557 93.0007L251.711 57.7785C251.714 56.9523 250.43 56.9513 250.427 57.7785Z" fill="white"/>
<path d="M374.607 0H129.889C120.912 0 113.612 7.29976 113.612 16.2769V183.975C113.612 192.952 120.912 200.252 129.889 200.252H374.607C383.584 200.252 390.884 192.952 390.884 183.975V16.2769C390.884 7.29976 383.584 0 374.607 0ZM389.173 183.975C389.173 192.011 382.643 198.54 374.607 198.54H129.889C121.853 198.54 115.324 192.011 115.324 183.975V16.2769C115.324 8.24115 121.853 1.71156 129.889 1.71156H374.607C382.643 1.71156 389.173 8.24114 389.173 16.2769V183.975Z" fill="#3F3D56"/>
<path d="M224.034 16.5593H200.02C198.814 16.5593 197.83 17.5434 197.83 18.7501C197.83 19.9653 198.814 20.9494 200.02 20.9494H224.034C225.24 20.9494 226.224 19.9653 226.224 18.7501C226.224 17.5434 225.24 16.5593 224.034 16.5593Z" fill="#E6E6E6"/>
<path d="M264.255 16.5593H240.242C239.035 16.5593 238.051 17.5434 238.051 18.7501C238.051 19.9652 239.035 20.9494 240.242 20.9494H264.255C265.462 20.9494 266.446 19.9653 266.446 18.7501C266.446 17.5434 265.462 16.5593 264.255 16.5593Z" fill="#E6E6E6"/>
<path d="M304.476 16.5593H280.463C279.257 16.5593 278.272 17.5434 278.272 18.7501C278.272 19.9652 279.257 20.9494 280.463 20.9494H304.476C305.683 20.9494 306.667 19.9653 306.667 18.7501C306.667 17.5434 305.683 16.5593 304.476 16.5593Z" fill="#E6E6E6"/>
<path d="M344.082 115.116H160.415C152.773 115.116 146.56 121.329 146.56 128.971V141.482C146.56 149.124 152.773 155.337 160.415 155.337H344.082C351.724 155.337 357.937 149.124 357.937 141.482V128.971C357.937 121.329 351.724 115.116 344.082 115.116Z" fill="#164D00"/>
<path d="M63.1846 180.99L56.1416 177.654C59.0303 181.685 61.5195 187.981 62.8521 192.991C65.1084 188.324 68.7456 182.614 72.3458 179.203L64.9022 181.118C69.4889 158.639 86.7409 142.5 106.497 142.5V140.789C85.8612 140.789 67.8678 157.603 63.1846 180.99Z" fill="#3F3D56"/>
<path d="M95.6008 215.242H51.1004C49.2129 215.242 47.6772 213.706 47.6772 211.818C47.6772 209.931 49.2129 208.395 51.1004 208.395H95.6008C97.4883 208.395 99.0239 209.931 99.0239 211.818C99.0239 213.706 97.4883 215.242 95.6008 215.242Z" fill="#E6E6E6"/>
<path d="M391.632 204.093L391.183 239.042L382.487 270.197L375.536 267.604L378.622 239.047L378.216 200.402L391.632 204.093Z" fill="#FFB6B6"/>
<path d="M382.457 275.22C383.273 270.741 381.778 266.716 379.118 266.232C376.458 265.748 373.641 268.987 372.825 273.467C372.009 277.946 373.504 281.971 376.164 282.455C378.824 282.939 381.642 279.7 382.457 275.22Z" fill="#FFB6B6"/>
<path d="M381.08 162.479C381.08 162.479 395.976 162.684 395.964 170.597C395.957 175.065 394.997 215.631 392.327 240.275C390.268 259.279 386.336 264.236 386.336 264.236L376.923 242.842L381.08 162.479Z" fill="#B0C0D0"/>
<path d="M380.696 233.883H330.387C334.604 224.473 337.197 215.512 333.144 208.384L380.696 205.627C378.32 215.25 378.03 224.693 380.696 233.883Z" fill="#FFB6B6"/>
<path d="M374.494 150.494L354.508 149.115L346.238 159.453L342.046 160.215C335.761 161.358 331.286 166.966 331.567 173.348L333.197 210.414L380.968 213.897L392.412 165.629L378.629 160.142L374.494 150.494Z" fill="#B0C0D0"/>
<path d="M252.612 161.675C254.03 162.951 255.043 164.441 255.577 165.886L269.853 177.185L264.278 183.82L250.397 171.644C248.903 171.265 247.315 170.415 245.897 169.14C242.658 166.226 241.535 162.192 243.389 160.131C245.244 158.07 249.373 158.761 252.612 161.675Z" fill="#FFB6B6"/>
<path d="M353.54 171.187L298.842 208.122L259.633 180.836L265.52 170.173L296.379 188.107L324.838 166.256C334.972 156.737 347.673 158.582 353.54 171.187Z" fill="#B0C0D0"/>
<path d="M363.316 146.02C371.505 146.02 378.143 139.382 378.143 131.193C378.143 123.004 371.505 116.366 363.316 116.366C355.127 116.366 348.489 123.004 348.489 131.193C348.489 139.382 355.127 146.02 363.316 146.02Z" fill="#FFB6B6"/>
<path d="M383.469 127.55V130.425L366.747 125.719L354.21 128.346C354.065 126.437 353.5 124.563 352.558 122.903C353.213 125.566 353.287 127.626 352.593 128.688L350.907 129.039C350.633 128.295 350.102 127.644 349.409 127.25C349.341 127.208 349.255 127.173 349.178 127.199C349.058 127.242 349.05 127.396 349.05 127.516C349.067 128.149 349.084 128.782 349.11 129.416L344.266 130.425V127.55C339.619 117.094 351.867 108.047 363.872 107.953C369.289 107.91 374.184 110.144 377.735 113.686C381.278 117.238 383.469 122.133 383.469 127.55Z" fill="#41342E"/>
<path d="M392.877 161.266L391.614 161.162C391.704 160.749 391.794 160.341 391.876 159.928C392.576 156.463 391.035 152.051 390.922 148.721C390.328 152.239 391.344 156.567 390.293 159.907C390.175 160.278 385.606 162.673 385.481 163.039C380.424 161.19 375.157 155.281 369.194 158.732C365.667 160.773 361.643 159.879 357.639 158.944C356.647 158.713 356.51 153.818 355.529 153.626C353.772 153.281 351.192 157.731 349.538 157.904L356.384 131.375C356.384 116.943 355.048 101.802 373.329 106.905C377.927 108.188 382.477 109.194 385.871 112.989C389.264 116.789 391.68 122.1 392.537 128.148C393.053 131.796 396.274 144.184 392.877 161.266Z" fill="#41342E"/>
<path d="M381.071 428.043L372.91 428.236L368.36 391.571L380.404 391.286L381.071 428.043Z" fill="#FFB7B7"/>
<path d="M353.071 445.07C353.071 446.448 354.049 447.566 355.256 447.566H371.455C371.455 447.566 373.05 441.158 379.549 438.4L379.998 447.566H388.354L387.342 432.828C387.342 432.828 389.577 424.943 384.935 420.913C380.292 416.882 384.052 417.443 384.052 417.443L382.226 408.321L369.598 409.806L369.506 424.125L363.377 438.338L354.389 442.779C353.589 443.174 353.071 444.074 353.071 445.07Z" fill="#2F2E41"/>
<path d="M356.242 422.068L348.397 424.325L334.692 390.015L346.27 386.683L356.242 422.068Z" fill="#FFB7B7"/>
<path d="M333.479 445.643C333.828 446.976 335.058 447.809 336.226 447.503L351.895 443.392C351.895 443.392 351.811 436.789 357.398 432.473L360.158 441.224L368.241 439.104L363.521 425.105C363.521 425.105 363.683 416.911 358.169 414.19C352.656 411.47 356.436 411.058 356.436 411.058L352.354 402.699L340.517 407.339L344.061 421.213L341.74 436.516L334.172 443.092C333.498 443.677 333.226 444.68 333.479 445.643Z" fill="#2F2E41"/>
<path d="M376.067 231.717L381.202 233.428C389.23 248.256 392.633 267.945 392.182 291.688L383.062 398.328H368.14L357.22 279.527L337.965 324.117L352.053 398.328L337.965 399.764L309.589 322.597L329.351 232.91L376.067 231.717Z" fill="#707880"/>
</g>
<defs>
<clipPath id="clip0_893_2135">
<rect width="466.881" height="448" fill="white" transform="translate(0.55957)"/>
</clipPath>
</defs>
</svg>
